<?xml version="1.0" standalone="no"?>
<!DOCTYPE svg PUBLIC "-//W3C//DTD SVG 20010904//EN"
 "http://www.w3.org/TR/2001/REC-SVG-20010904/DTD/svg10.dtd">
<svg version="1.0" xmlns="http://www.w3.org/2000/svg"
 width="1920.000000pt" height="1080.000000pt" viewBox="0 0 1920.000000 1080.000000"
 preserveAspectRatio="xMidYMid meet">

<g transform="translate(0.000000,1080.000000) scale(0.100000,-0.100000)"
fill="#F5F5F0" stroke="none">
<path d="M4474 8171 c-46 -8 -44 41 -44 -1185 l0 -1161 -593 593 c-325 325
-596 592 -602 592 -13 0 -95 -82 -95 -95 0 -5 259 -269 575 -585 316 -316 575
-578 575 -582 0 -5 -510 -8 -1133 -8 l-1134 0 -11 -22 c-8 -16 -10 -174 -9
-531 l2 -507 705 -705 705 -705 521 0 c391 0 523 3 532 12 9 9 12 278 12 1147
l0 1136 568 -568 c312 -312 571 -567 577 -567 13 0 95 82 95 95 0 5 -262 272
-582 592 -321 321 -578 583 -573 584 6 1 528 2 1161 2 959 2 1154 4 1167 16
15 12 17 61 17 525 l0 511 -709 708 -708 709 -500 2 c-275 0 -508 -1 -519 -3z
m926 -45 c0 -9 -495 -366 -507 -366 -11 0 -370 359 -365 365 6 6 872 7 872 1z
m419 -340 c300 -300 313 -315 290 -325 -13 -5 -94 -22 -179 -36 -85 -15 -164
-29 -175 -32 -11 -2 -78 -15 -150 -28 -71 -14 -148 -29 -170 -35 -22 -5 -51
-10 -64 -10 -21 0 -23 3 -17 33 4 17 11 55 16 82 9 51 39 205 85 445 15 74 29
154 32 178 3 23 8 42 12 42 3 0 148 -141 320 -314z m-1058 -542 c-56 -258
-106 -487 -111 -509 -9 -38 -18 -80 -75 -350 -44 -206 -86 -389 -90 -394 -3
-2 -5 470 -5 1050 l0 1054 191 -191 191 -191 -101 -469z m685 829 c-3 -10 -13
-56 -21 -103 -9 -47 -37 -191 -61 -320 -25 -129 -48 -250 -51 -267 -3 -18 -10
-33 -16 -33 -14 0 -367 352 -367 366 0 6 25 28 55 50 31 21 102 73 158 114 56
41 122 89 145 105 23 17 66 47 95 67 58 42 71 46 63 21z m-163 -805 c-5 -7
-29 -49 -53 -93 -46 -87 -292 -532 -480 -870 -64 -115 -133 -241 -154 -278
-53 -98 -76 -134 -76 -120 0 11 61 297 125 588 14 61 75 344 136 630 61 286
113 527 116 535 2 9 73 -56 200 -182 150 -150 194 -200 186 -210z m867 145 c0
-8 -25 -139 -101 -533 -21 -113 -39 -213 -39 -223 0 -9 -1 -17 -3 -17 -5 0
-622 620 -625 629 -3 8 77 26 298 67 337 61 415 76 419 80 8 7 51 4 51 -3z
m369 -327 c196 -196 309 -316 302 -321 -7 -3 -82 -19 -169 -35 -86 -16 -170
-31 -187 -35 -16 -3 -86 -17 -155 -30 -69 -13 -153 -29 -187 -36 -35 -7 -65
-10 -69 -7 -3 3 11 91 31 195 20 103 52 268 71 367 18 98 34 187 34 197 0 11
3 19 8 19 4 0 148 -141 321 -314z m-549 -491 c0 -5 -62 -44 -137 -85 -151 -83
-249 -137 -388 -216 -27 -15 -77 -42 -110 -60 -33 -18 -224 -123 -424 -233
-200 -111 -368 -201 -373 -201 -4 0 -8 4 -8 8 0 5 60 116 133 248 74 131 148
266 166 299 18 33 137 248 264 478 l231 418 323 -323 c178 -178 323 -327 323
-333z m890 -372 l0 -438 -185 185 c-102 102 -185 189 -185 195 0 6 24 42 53
80 28 39 108 148 176 243 68 94 127 172 132 172 5 0 9 -189 9 -437z m-226
-282 c103 -104 184 -190 180 -193 -8 -4 -2045 -3 -2084 1 -26 3 9 18 70 30 30
6 84 17 120 25 192 41 228 48 260 56 19 5 71 16 115 25 44 10 107 23 140 30
33 7 94 20 135 29 41 9 248 54 460 100 212 47 392 85 400 85 8 1 100 -84 204
-188z m-2483 -257 c-18 -8 -52 -19 -75 -23 -22 -5 -126 -27 -230 -50 -104 -23
-198 -43 -210 -45 -11 -3 -41 -9 -66 -15 -81 -18 -173 -38 -255 -56 -169 -36
-263 -56 -370 -80 -38 -9 -104 -23 -145 -31 -41 -9 -104 -23 -140 -30 -36 -8
-93 -20 -128 -26 l-63 -11 -183 179 c-100 98 -185 185 -189 192 -5 9 206 12
1041 11 931 -1 1043 -2 1013 -15z m-1902 -218 l183 -183 -45 -59 c-57 -76
-197 -268 -267 -366 -30 -43 -58 -78 -62 -78 -5 0 -8 196 -8 435 0 239 3 435
8 435 4 0 90 -83 191 -184z m2141 178 c0 -3 -8 -18 -18 -32 -11 -15 -37 -61
-59 -102 -48 -88 -23 -45 -350 -635 -143 -258 -280 -506 -304 -551 -24 -44
-51 -91 -59 -102 -15 -22 -23 -14 -337 300 -178 177 -323 324 -323 327 0 9 24
23 175 106 28 15 55 30 60 35 6 4 48 28 95 53 47 25 166 90 265 144 99 55 308
170 465 257 157 86 303 167 325 181 39 23 65 31 65 19z m-14 -185 c-9 -41 -23
-105 -31 -144 -9 -38 -25 -113 -36 -165 -11 -52 -28 -133 -39 -180 -11 -47
-58 -265 -105 -485 -47 -220 -90 -420 -96 -445 -6 -25 -20 -92 -33 -149 -12
-58 -27 -106 -32 -108 -5 -2 -94 82 -198 186 l-188 189 37 69 c21 37 90 163
155 278 64 116 134 242 155 280 167 309 418 755 422 752 2 -3 -3 -38 -11 -78z
m56 -1054 c-1 -575 -6 -1045 -10 -1045 -8 0 -372 363 -372 371 0 2 7 36 15 74
9 39 20 92 25 118 5 27 19 88 30 135 18 83 168 776 251 1162 51 241 48 230 57
230 4 0 6 -470 4 -1045z m-1576 388 c-4 -21 -32 -168 -62 -328 -31 -159 -60
-318 -66 -353 -6 -34 -15 -61 -19 -60 -13 4 -619 611 -619 619 0 9 25 18 66
24 16 3 85 16 154 29 131 25 448 84 489 91 13 2 26 7 29 10 3 3 12 5 20 5 11
0 13 -8 8 -37z m369 -303 c197 -197 306 -313 300 -319 -6 -5 -23 -12 -40 -15
-28 -4 -278 -50 -335 -61 -14 -3 -36 -7 -50 -10 -14 -3 -72 -15 -130 -25 -58
-11 -114 -22 -125 -24 -77 -18 -85 -18 -85 -5 0 8 17 104 39 214 21 110 53
280 72 378 18 97 35 177 39 177 3 0 144 -139 315 -310z m335 -369 c0 -5 -13
-78 -29 -163 -67 -345 -101 -525 -107 -566 -4 -23 -10 -41 -15 -40 -13 5 -619
611 -619 620 0 10 51 23 190 47 63 12 126 23 140 26 14 3 97 19 185 35 88 17
176 34 195 39 48 12 60 13 60 2z m237 -203 c101 -101 183 -187 183 -193 -1 -5
-58 -50 -127 -100 -183 -130 -188 -133 -287 -207 -50 -37 -94 -64 -98 -60 -3
4 0 36 8 72 13 61 51 262 105 548 13 67 25 122 28 122 3 0 88 -82 188 -182z
m410 -410 c101 -101 183 -186 183 -189 0 -3 -196 -6 -435 -6 -315 0 -435 3
-435 12 0 6 35 35 77 65 42 30 93 66 113 80 19 14 70 51 113 83 96 71 190 137
197 137 3 0 87 -82 187 -182z"/>
<path d="M11600 5129 c-32 -13 -78 -56 -96 -91 -17 -32 -18 -115 -3 -155 29
-77 130 -125 217 -103 62 15 101 45 123 94 45 99 6 212 -88 252 -37 16 -116
17 -153 3z"/>
<path d="M7130 4195 l0 -875 585 0 585 0 0 135 0 135 -440 0 -440 0 0 740 0
740 -145 0 -145 0 0 -875z"/>
<path d="M10020 4195 l0 -875 145 0 145 0 0 360 0 360 400 0 400 0 0 135 0
135 -400 0 -400 0 0 250 0 250 445 0 445 0 0 130 0 130 -590 0 -590 0 0 -875z"/>
<path d="M12260 4195 l0 -875 140 0 140 0 2 602 3 602 269 -602 269 -602 136
0 136 0 265 594 265 593 3 -593 2 -594 145 0 145 0 0 875 0 875 -176 -2 -176
-3 -298 -670 c-164 -368 -302 -676 -307 -683 -5 -8 -117 233 -312 673 l-304
685 -174 0 -173 0 0 -875z"/>
<path d="M8862 4610 c-183 -48 -309 -173 -356 -352 -7 -29 -12 -56 -9 -60 2
-5 60 -8 128 -8 l123 0 11 33 c35 99 115 155 234 164 173 13 289 -72 312 -229
l6 -48 -238 0 c-262 0 -327 -9 -416 -58 -71 -38 -134 -103 -165 -170 -24 -51
-27 -69 -27 -167 0 -100 3 -116 29 -172 32 -70 116 -157 184 -192 67 -34 150
-51 250 -51 162 0 278 43 357 133 l42 48 5 -46 c11 -93 57 -115 238 -115 l131
0 -3 123 -3 122 -62 3 -63 3 0 317 c0 346 -5 387 -58 486 -34 65 -123 153
-189 189 -122 66 -314 85 -461 47z m444 -792 c-18 -167 -131 -267 -311 -276
-100 -5 -155 9 -205 54 -64 58 -72 163 -18 221 51 56 83 63 322 63 l219 0 -7
-62z"/>
<path d="M11540 3965 l0 -645 140 0 140 0 -2 643 -3 642 -137 3 -138 3 0 -646z"/>
<path d="M16034 4415 c-25 -39 -7 -43 29 -7 30 30 30 32 10 32 -13 0 -30 -11
-39 -25z"/>
<path d="M14907 4423 c-4 -3 -7 -66 -7 -140 0 -108 3 -133 14 -133 8 0 16 5
18 12 3 8 11 7 28 -5 65 -45 149 6 150 91 0 35 -6 49 -29 73 -34 33 -91 40
-129 13 -22 -15 -22 -15 -22 40 0 52 -7 66 -23 49z m156 -125 c39 -47 5 -128
-55 -128 -38 0 -78 40 -78 78 0 71 87 105 133 50z"/>
<path d="M16314 4419 c-9 -15 11 -33 30 -26 9 4 13 13 10 22 -7 17 -30 20 -40
4z"/>
<path d="M14460 4285 l0 -135 65 0 c51 0 65 3 65 15 0 11 -12 15 -50 15 l-50
0 0 120 c0 100 -2 120 -15 120 -13 0 -15 -22 -15 -135z"/>
<path d="M15830 4385 c0 -24 -5 -35 -15 -35 -8 0 -15 -7 -15 -15 0 -8 7 -15
15 -15 12 0 15 -16 15 -85 0 -69 3 -85 15 -85 12 0 15 16 15 85 0 78 2 85 20
85 11 0 20 7 20 15 0 8 -9 15 -20 15 -16 0 -20 7 -20 35 0 24 -5 35 -15 35
-10 0 -15 -11 -15 -35z"/>
<path d="M14659 4321 c-21 -22 -29 -39 -29 -66 0 -91 74 -140 150 -100 17 9
30 11 30 5 0 -5 7 -10 15 -10 12 0 15 18 15 100 0 82 -3 100 -15 100 -8 0 -15
-7 -15 -16 0 -14 -2 -14 -22 0 -38 27 -95 20 -129 -13z m131 -21 c43 -43 8
-130 -53 -130 -42 0 -77 34 -77 77 0 44 30 73 75 73 22 0 43 -8 55 -20z"/>
<path d="M15189 4321 c-50 -50 -33 -144 30 -171 80 -33 164 36 146 119 -17 81
-118 110 -176 52z m130 -27 c28 -35 26 -69 -4 -99 -49 -50 -125 -19 -125 50 0
72 86 104 129 49z"/>
<path d="M15410 4250 c0 -82 3 -100 15 -100 12 0 15 13 15 61 0 69 11 96 46
109 13 5 24 14 24 20 0 14 -43 13 -58 -2 -9 -9 -12 -9 -12 0 0 7 -7 12 -15 12
-12 0 -15 -18 -15 -100z"/>
<path d="M15577 4330 c-38 -30 -52 -80 -33 -123 15 -37 59 -67 96 -67 12 0 34
7 50 15 17 9 30 11 30 5 0 -5 7 -10 15 -10 13 0 15 15 13 97 -2 66 -7 98 -15
101 -7 2 -13 -4 -13 -13 0 -15 -2 -15 -22 -1 -31 22 -90 20 -121 -4z m122 -36
c28 -35 26 -69 -4 -99 -50 -51 -125 -20 -125 52 0 49 23 73 71 73 29 0 42 -6
58 -26z"/>
<path d="M15969 4321 c-57 -57 -31 -158 46 -177 69 -17 142 47 131 115 -14 87
-116 123 -177 62z m130 -27 c28 -35 26 -69 -4 -99 -49 -50 -125 -20 -125 50 0
72 86 104 129 49z"/>
<path d="M16192 4248 c2 -70 7 -103 16 -106 9 -3 12 14 12 62 0 75 14 114 43
118 11 2 22 9 25 16 5 16 -40 16 -56 0 -9 -9 -12 -9 -12 0 0 7 -7 12 -15 12
-13 0 -15 -16 -13 -102z"/>
<path d="M16320 4244 c0 -80 3 -105 13 -102 8 3 13 36 15 106 2 86 0 102 -13
102 -12 0 -15 -17 -15 -106z"/>
<path d="M16429 4321 c-33 -33 -39 -83 -15 -130 42 -81 174 -58 192 35 13 71
-33 124 -106 124 -33 0 -48 -6 -71 -29z m130 -27 c28 -35 26 -69 -4 -99 -48
-49 -125 -17 -125 52 0 70 86 101 129 47z"/>
<path d="M15280 3999 c-38 -52 0 -51 39 1 21 29 21 30 2 30 -11 0 -29 -14 -41
-31z"/>
<path d="M14630 3954 c0 -54 -1 -56 -17 -42 -28 24 -60 30 -97 18 -109 -36
-80 -207 34 -204 24 1 49 9 60 19 18 16 20 17 20 2 0 -10 7 -17 15 -17 13 0
15 20 13 137 -2 98 -6 138 -15 141 -10 3 -13 -12 -13 -54z m-31 -61 c12 -10
24 -35 28 -55 5 -31 1 -40 -22 -62 -35 -32 -66 -33 -101 -3 -73 63 20 181 95
120z"/>
<path d="M15510 3990 c0 -15 5 -20 18 -18 9 2 17 10 17 18 0 8 -8 16 -17 18
-13 2 -18 -3 -18 -18z"/>
<path d="M15090 3865 c0 -113 2 -135 15 -135 12 0 15 14 15 65 l0 65 55 0 c42
0 55 3 55 15 0 12 -13 15 -55 15 l-55 0 0 40 0 40 55 0 c42 0 55 3 55 15 0 12
-14 15 -70 15 l-70 0 0 -135z"/>
<path d="M14775 3931 c-40 -17 -60 -51 -60 -102 0 -39 5 -54 27 -75 38 -38
108 -39 145 -2 36 36 20 56 -19 23 -37 -32 -72 -32 -103 0 -47 46 -35 55 66
55 l91 0 -7 28 c-14 58 -87 96 -140 73z m83 -37 c42 -29 28 -44 -43 -44 -50 0
-65 3 -65 14 0 19 38 46 65 46 11 0 31 -7 43 -16z"/>
<path d="M15371 3921 c-30 -30 -26 -55 12 -85 17 -15 38 -31 45 -37 20 -17 -4
-53 -31 -44 -36 10 -42 10 -46 0 -2 -5 9 -16 24 -24 33 -16 71 -2 84 31 12 34
3 54 -40 82 -21 15 -39 32 -39 40 0 19 28 28 50 16 21 -11 39 5 24 20 -22 21
-62 22 -83 1z"/>
<path d="M15653 3925 c-33 -14 -63 -59 -63 -95 0 -63 70 -118 133 -104 40 8
67 25 67 41 0 17 -13 16 -47 -4 -48 -27 -105 -2 -119 53 -9 34 12 70 49 85 29
12 34 11 100 -16 12 -5 17 -2 17 9 0 18 -55 46 -87 46 -10 -1 -32 -7 -50 -15z"/>
<path d="M15900 3923 c-50 -26 -70 -84 -46 -135 30 -63 109 -83 159 -40 15 14
17 13 17 -1 0 -10 7 -17 15 -17 12 0 15 18 15 100 0 82 -3 100 -15 100 -8 0
-15 -7 -15 -17 0 -15 -1 -15 -18 0 -29 26 -73 30 -112 10z m91 -26 c25 -19 41
-57 35 -83 -8 -32 -45 -64 -72 -64 -37 0 -77 42 -77 80 0 58 71 100 114 67z"/>
<path d="M15270 3830 c0 -82 3 -100 15 -100 12 0 15 18 15 100 0 82 -3 100
-15 100 -12 0 -15 -18 -15 -100z"/>
<path d="M15510 3830 c0 -82 3 -100 15 -100 12 0 15 18 15 100 0 82 -3 100
-15 100 -12 0 -15 -18 -15 -100z"/>
<path d="M16213 3584 c-7 -19 11 -39 26 -30 16 10 13 33 -4 40 -9 3 -18 -1
-22 -10z"/>
<path d="M16563 3584 c-7 -19 11 -39 26 -30 16 10 13 33 -4 40 -9 3 -18 -1
-22 -10z"/>
<path d="M14630 3540 l0 -51 -32 17 c-34 18 -89 14 -115 -8 -9 -7 -22 -28 -30
-46 -38 -91 74 -183 155 -126 20 14 22 14 22 -1 0 -9 6 -15 13 -13 9 3 13 43
15 141 2 117 0 137 -13 137 -11 0 -15 -12 -15 -50z m-25 -75 c30 -30 32 -64 4
-99 -38 -48 -123 -29 -129 29 -9 85 68 128 125 70z"/>
<path d="M15730 3556 c0 -25 -5 -35 -20 -39 -11 -3 -20 -10 -20 -16 0 -6 9
-11 20 -11 19 0 20 -7 20 -90 0 -73 3 -90 15 -90 12 0 15 17 15 90 0 83 1 90
20 90 11 0 20 5 20 11 0 6 -9 13 -20 16 -15 4 -20 14 -20 39 0 24 -5 34 -15
34 -10 0 -15 -10 -15 -34z"/>
<path d="M15097 3453 c-21 -152 -20 -143 -3 -143 9 0 17 27 25 90 7 50 15 90
17 90 2 0 25 -42 50 -92 l47 -93 47 95 c54 107 49 109 68 -29 4 -33 13 -56 21
-59 12 -4 13 6 8 54 -12 111 -29 214 -37 214 -4 0 -30 -48 -57 -107 l-51 -108
-53 108 c-30 59 -56 107 -59 107 -4 0 -14 -57 -23 -127z"/>
<path d="M14744 3486 c-38 -38 -44 -77 -19 -126 19 -37 43 -50 95 -50 31 0 47
6 67 26 17 17 22 29 15 36 -7 7 -17 3 -31 -11 -40 -40 -131 -16 -131 34 0 12
17 15 91 15 l91 0 -6 28 c-10 42 -60 82 -102 82 -28 0 -44 -8 -70 -34z m118
-13 c30 -27 21 -33 -47 -33 -36 0 -65 3 -65 7 0 3 7 15 17 25 20 22 70 23 95
1z"/>
<path d="M15471 3494 c-32 -26 -48 -76 -37 -112 4 -11 18 -32 33 -46 30 -30
86 -35 121 -10 20 14 22 14 22 0 0 -9 7 -16 15 -16 12 0 15 18 15 105 0 65 -4
105 -10 105 -6 0 -13 -7 -16 -15 -5 -13 -8 -13 -27 0 -33 23 -81 19 -116 -11z
m119 -24 c25 -25 27 -86 3 -112 -26 -29 -87 -24 -112 8 -28 35 -26 69 4 99 30
31 77 33 105 5z"/>
<path d="M15871 3494 c-75 -63 -33 -184 65 -184 44 0 94 30 94 56 0 19 -7 18
-37 -6 -26 -20 -78 -26 -99 -12 -11 7 -34 45 -34 56 0 3 41 6 90 6 98 0 102 3
78 55 -26 57 -107 72 -157 29z m122 -26 l22 -23 -69 -3 c-37 -2 -71 -1 -74 2
-3 3 3 15 13 26 25 28 79 26 108 -2z"/>
<path d="M16084 3507 c-3 -8 -4 -54 -2 -103 2 -71 6 -89 18 -89 11 0 16 14 18
60 3 89 8 102 44 114 24 9 29 14 20 23 -9 9 -18 9 -36 0 -16 -7 -28 -8 -31 -2
-9 14 -25 12 -31 -3z"/>
<path d="M16217 3513 c-4 -3 -7 -51 -7 -105 0 -80 3 -98 15 -98 12 0 15 18 15
105 0 96 -5 117 -23 98z"/>
<path d="M16328 3491 c-28 -25 -33 -36 -33 -76 0 -40 5 -51 33 -76 35 -31 97
-40 120 -17 9 9 15 9 24 0 24 -24 28 -10 28 93 0 65 -4 105 -10 105 -6 0 -13
-7 -16 -15 -5 -13 -8 -13 -27 0 -35 24 -83 19 -119 -14z m107 -7 c23 -9 47
-61 39 -87 -12 -39 -35 -57 -75 -57 -29 0 -42 6 -59 27 -50 64 18 146 95 117z"/>
<path d="M16567 3513 c-4 -3 -7 -51 -7 -105 0 -80 3 -98 15 -98 12 0 15 18 15
105 0 96 -5 117 -23 98z"/>
<path d="M16654 3495 c-21 -33 -8 -67 34 -89 57 -29 48 -73 -12 -63 -41 7 -56
-7 -26 -23 36 -19 83 -8 98 22 16 35 5 58 -43 88 -19 12 -35 28 -35 36 0 20
29 29 51 16 25 -16 38 7 14 25 -29 21 -63 16 -81 -12z"/>
</g>
</svg>
